{"title":"Tengo ganas de ti (3MSC 2)","uid":7605682,"size":1953728512,"categoryP":"video","categoryS":"movies","magnet":"?xt=urn:btih:d7b00ca2f8096911f9add26757beae38d0a40b32&amp;dn=Tengo+ganas+de+ti+%283MSC+2%29&amp;tr=udp%3A%2F%2Ftracker.openbittorrent.com%3A80&amp;tr=udp%3A%2F%2Fopen.demonii.com%3A1337&amp;tr=udp%3A%2F%2Ftracker.coppersurfer.tk%3A6969&amp;tr=udp%3A%2F%2Fexodus.desync.com%3A6969","seeders":0,"leechers":0,"uploader":"Gab_c","files":1,"time":1346943924,"description":"Idioma: Castellano\n\nFormat                                   : AVI\nFormat/Info                              : Audio Video Interleave\nFile size                                : 1.82 GiB\nDuration                                 : 1h 58mn\nOverall bit rate                         : 2 198 Kbps\nDirector                                 : Maurixio\nWriting application                      : VirtualDubMod 1.5.10.2 (build 2542/release)\nWriting library                          : VirtualDubMod build 2542/release\nCopyright                                : www.maurixio.net\n\nVideo\nID                                       : 0\nFormat                                   : MPEG-4 Visual\nFormat profile                           : Advanced Simple@L5\nFormat settings, BVOP                    : 2\nFormat settings, QPel                    : No\nFormat settings, GMC                     : No warppoints\nFormat settings, Matrix                  : Custom\nCodec ID                                 : XVID\nCodec ID/Hint                            : XviD\nDuration                                 : 1h 58mn\nBit rate                                 : 1 997 Kbps\nWidth                                    : 720 pixels\nHeight                                   : 304 pixels\nDisplay aspect ratio                     : 2.35:1\nFrame rate                               : 25.000 fps\nOriginal frame rate                      : 23.976 fps\nColor space                              : YUV\nChroma subsampling                       : 4:2:0\nBit depth                                : 8 bits\nScan type                                : Progressive\nCompression mode                         : Lossy\nBits/(Pixel*Frame)                       : 0.365\nStream size                              : 1.65 GiB (91%)\nWriting library                          : XviD 1.2.1 (UTC 2008-12-04)\n\nAudio\nID                                       : 1\nFormat                                   : AC-3\nFormat/Info                              : Audio Coding 3\nMode extension                           : CM (complete main)\nFormat settings, Endianness              : Big\nCodec ID                                 : 2000\nDuration                                 : 1h 58mn\nBit rate mode                            : Constant\nBit rate                                 : 192 Kbps\nChannel(s)                               : 2 channels\nChannel positions                        : Front: L R\nSampling rate                            : 48.0 KHz\nBit depth                                : 16 bits\nCompression mode                         : Lossy\nDelay relative to video                  : 16ms\nStream size                              : 163 MiB (9%)\nAlignment                                : Split accross interleaves\nInterleave, duration                     : 40 ms (1.00 video frame)\nInterleave, preload duration             : 500 ms\n","torrent":{"xt":"urn:btih:d7b00ca2f8096911f9add26757beae38d0a40b32","amp;dn":"Tengo+ganas+de+ti+%283MSC+2%29","amp;tr":["udp%3A%2F%2Ftracker.openbittorrent.com%3A80","udp%3A%2F%2Fopen.demonii.com%3A1337","udp%3A%2F%2Ftracker.coppersurfer.tk%3A6969","udp%3A%2F%2Fexodus.desync.com%3A6969"],"infoHash":"d7b00ca2f8096911f9add26757beae38d0a40b32","infoHashBuffer":{"type":"Buffer","data":[215,176,12,162,248,9,105,17,249,173,210,103,87,190,174,56,208,164,11,50]},"announce":[],"urlList":[]}}